<svg xmlns="http://www.w3.org/2000/svg" enable-background="new 0 0 2500 2500" viewBox="0 0 2500 2500"><path fill="#fff1e1" d="M2348.711 1235.113a367.23 367.23 0 0 1-.528 7.243c-2.877 35.017-9.114 69.601-18.755 102.795a211.577 211.577 0 0 1-2.158 7.291c-11.225 36.503-26.622 71.233-46.241 102.795a228.505 228.505 0 0 1-4.605 7.291c-2.062 3.214-4.222 6.38-6.38 9.497-23.696 34.106-51.805 64.229-80.777 93.298-2.446 2.446-4.845 4.893-7.291 7.291-33.77 33.625-68.354 66.291-98.142 102.795a203.584 203.584 0 0 0-5.852 7.291c-14.534 18.371-27.725 37.798-38.998 58.856a372.623 372.623 0 0 0-3.934 7.483 170.336 170.336 0 0 0-3.214 6.62c-.048.096-.096.144-.144.239a315.653 315.653 0 0 0-10.553 24.704 202.836 202.836 0 0 0-1.775 4.893c-.911 2.398-1.726 4.845-2.541 7.243-11.273 33.529-16.789 67.874-18.42 102.795-.144 2.446-.24 4.845-.336 7.291-1.055 33.77 1.391 68.114 5.756 102.796.288 2.445.624 4.892.959 7.29 4.51 34.01 10.746 68.306 17.269 102.795.432 2.448.911 4.893 1.391 7.291 6.763 35.976 13.718 72.144 19.091 108.263H345.625c12.088-32.714 14.342-71.567 8.586-108.263-.048-.239-.048-.479-.096-.719a268.57 268.57 0 0 0-1.103-6.572c-1.727-9.401-4.03-18.611-6.763-27.485-8.251-26.717-19.859-51.469-33.05-75.309-1.391-2.446-2.733-4.892-4.125-7.29-19.091-33.435-41.013-65.237-60.728-98.191l-2.733-4.605c-1.391-2.398-2.831-4.845-4.222-7.291-18.132-31.85-34.106-66.627-42.979-102.795-.048-.24-.096-.432-.144-.671-.384-1.535-.719-3.119-1.103-4.654-.144-.671-.24-1.295-.384-1.918-5.468-25.231-7.291-51.038-3.836-77.036a205.498 205.498 0 0 1 5.132-25.758 127.452 127.452 0 0 1 2.11-7.291c12.136-39.717 35.545-72.624 63.653-102.795 2.256-2.446 4.558-4.845 6.907-7.291 20.099-20.77 42.212-40.389 64.085-60.343a899.933 899.933 0 0 0 7.291-6.668c12.759-11.656 25.327-23.504 37.271-35.784a501.967 501.967 0 0 0 7.003-7.291c28.252-30.075 52.428-62.981 66.244-102.795a58.19 58.19 0 0 0 1.055-3.07c.432-1.391.911-2.782 1.343-4.221.863-2.734 1.631-5.516 2.398-8.298 8.202-30.939 9.305-62.55 6.715-94.496-.24-2.398-.431-4.845-.671-7.243-3.454-34.201-10.889-68.642-18.18-102.843-.527-2.446-1.055-4.845-1.535-7.243-3.021-14.103-5.948-28.11-8.538-42.02a760.081 760.081 0 0 1-8.777-60.775 178.49 178.49 0 0 1-.72-7.291c-3.31-34.105-4.413-68.498-3.31-102.795v-.911c.048-2.014.096-3.982.192-5.948v-.432a825.541 825.541 0 0 1 10.457-102.795c.336-2.446.767-4.893 1.151-7.291 6.092-34.969 14.438-69.361 24.944-102.795.047-.096.047-.24.095-.336.72-2.302 1.487-4.605 2.254-6.907 11.513-35.592 25.567-70.033 42.068-102.843 1.199-2.446 2.446-4.844 3.694-7.243 18.612-36.024 40.246-69.985 64.708-101.116.432-.576.864-1.103 1.343-1.679a281.85 281.85 0 0 1 5.9-7.291c32.57-39.813 69.841-74.302 110.278-102.795.912-.671 1.871-1.295 2.782-1.966 1.727-1.199 3.454-2.398 5.229-3.55.863-.576 1.774-1.199 2.637-1.775 65.909-44.13 139.635-72.527 214.848-82.12 2.446-.288 4.893-.576 7.291-.864 53.58-5.948 107.831-2.35 160.5 11.896 51.613 13.959 100.924 38.374 145.871 71.088a343.924 343.924 0 0 1 9.738 7.291c37.75 28.781 72.142 63.509 102.026 102.795 2.063 2.734 4.126 5.468 6.092 8.202 23.025 31.419 43.171 65.62 59.817 101.884 1.103 2.398 2.158 4.844 3.261 7.243a583.323 583.323 0 0 1 34.44 102.843 917.59 917.59 0 0 1 1.295 5.564c.144.528.24 1.103.384 1.679a610.389 610.389 0 0 1 6.619 35.304c3.406 21.777 6.14 44.802 9.738 67.49.384 2.446.767 4.893 1.199 7.291 6.428 38.422 15.734 75.357 35.161 102.795a101.233 101.233 0 0 0 5.468 7.195l.096.096c5.661 6.86 12.184 13 19.571 18.276 39.477 28.061 91.474 17.748 132.391-7.339 5.564-3.406 11.032-7.099 16.357-10.937 3.31-2.35 6.523-4.797 9.738-7.291 29.98-23.168 57.225-51.373 87.349-74.542a328.05 328.05 0 0 1 43.459-28.253c1.438-.767 2.829-1.535 4.269-2.254a97.745 97.745 0 0 1 4.989-2.59c1.631-.815 3.261-1.631 4.941-2.446 92.673-44.706 201.177-43.171 294.666 0a200.52 200.52 0 0 1 7.291 3.454c2.542 1.247 5.085 2.494 7.627 3.838 44.993 23.312 85.958 56.602 119.295 99.341a162.475 162.475 0 0 1 2.638 3.454c1.822 2.398 3.646 4.797 5.42 7.291 22.45 30.94 40.534 65.716 54.252 102.795.432 1.199.864 2.398 1.295 3.646.432 1.199.911 2.398 1.295 3.646 11.56 32.906 19.714 67.49 24.416 102.795.287 2.398.623 4.845.863 7.243 4.079 34.004 4.942 68.589 2.592 102.838z"/><path fill="#fce0c5" d="M1770.699 912.146h416.935v102.795h-416.935V912.146zm-155.943 110.086h416.935v102.795h-416.935v-102.795zm-275.527 873.3H922.293v-102.795h416.935v102.795zm268.236 7.292v102.796h-416.937v-102.796h416.937zm-692.463-110.086v102.795H498.067v-102.795h416.935zm-148.7-7.243V1682.7h416.936v102.795H766.302zm0 117.329h416.936v102.796H766.302v-102.796zm424.226-117.329V1682.7h416.937v102.795h-416.937zm148.701-110.086H922.293v-102.795h416.935v102.795zM922.293 1132.27h416.935v102.843H922.293V1132.27zm-155.991-7.243v-102.795h416.936v102.795H766.302zm841.163 117.329v102.795h-416.937v-102.795h416.937zm-424.227 0v102.795H766.302v-102.795h416.936zm-260.945 110.086h416.935v102.795H922.293v-102.795zm260.945 110.085v102.795H766.302v-102.795h416.936zm7.29 102.796v-102.795h416.937v102.795h-416.937zm155.992-110.087v-102.795h416.937v102.795H1346.52zm268.236-110.085v-102.795h416.935v102.795h-416.935zm148.7-110.038H1346.52V1132.27h416.937v102.843zm-155.991-212.881v102.795h-416.937v-102.795h416.937zm-268.236-110.086v102.795H922.293V912.146h416.936zm-572.927-7.292V802.06h416.936v102.795H766.302zm572.927-212.88v102.795H922.293V691.974h416.936zm0-220.124v102.795H922.293V471.85h416.936zm-572.927-7.291V361.764h416.936v102.795H766.302zm0 117.329h416.936v102.843H766.302V581.888zM498.067 794.769V691.974h416.935v102.795H498.067zm0 220.172V912.146h416.935v102.795H498.067zm0 220.172V1132.27h416.935v102.843H498.067zm0 220.123v-102.795h416.935v102.795H498.067zm0 117.378h416.935v102.795H498.067v-102.795zm-155.944 212.881V1682.7h416.935v102.795H342.123zm0 220.124v-102.796h416.935v102.796H342.123zm572.879 110.085H498.067v-102.795h416.935v102.795zm424.227 0H922.293v-102.795h416.935v102.795zm424.227-102.795v102.795H1346.52v-102.795h416.936zm0-220.171v102.795H1346.52v-102.795h416.936zm0-117.329H1346.52v-102.795h416.937v102.795zm268.235-110.086h-416.935v-102.795h416.935v102.795zm155.944-212.881v102.795H1770.7v-102.795h416.935zm-416.936-117.329V1132.27h416.935v102.843h-416.935zm260.992 994.324h7.291v-20.626c-2.254-13.863-4.749-27.773-7.291-41.636v62.262zm316.492-987.081c.192-2.398.384-4.845.528-7.243h-153.785V1132.27h151.195c-.24-2.398-.576-4.845-.863-7.243h-306.274v-102.795h281.859c-.384-1.247-.863-2.446-1.295-3.646-.431-1.247-.863-2.446-1.295-3.646h-123.325V912.146h69.073c-1.774-2.494-3.598-4.893-5.42-7.291h-219.596V802.06h97.663c-2.542-1.343-5.085-2.59-7.627-3.838a203.926 203.926 0 0 0-7.291-3.454h-294.666c-1.679.816-3.309 1.631-4.941 2.446a98.983 98.983 0 0 0-4.989 2.59c-1.439.719-2.831 1.487-4.269 2.254h218.828v102.795h-349.636c-3.215 2.494-6.428 4.941-9.738 7.291h91.139v102.795H1346.52V912.146h157.479l-.096-.096a101.233 101.233 0 0 1-5.468-7.195h-307.906V802.06h272.745c-.432-2.398-.815-4.845-1.199-7.291H1346.52V691.974h99.198c-.144-.576-.24-1.151-.384-1.679a917.59 917.59 0 0 0-1.295-5.564h-253.51V581.888h219.07c-1.103-2.398-2.158-4.844-3.261-7.243h-59.817V472.761c-1.966-2.734-4.029-5.468-6.092-8.202H1190.53V361.764h47.873a343.924 343.924 0 0 0-9.738-7.291H922.293v-82.984c-2.398.288-4.845.576-7.291.864v82.12H700.154c-.863.576-1.774 1.199-2.637 1.775-1.775 1.151-3.502 2.35-5.229 3.55-.911.671-1.87 1.295-2.782 1.966h69.553v102.795H579.228a281.85 281.85 0 0 0-5.9 7.291h341.674v102.795H507.276c-1.247 2.398-2.494 4.797-3.694 7.243h255.476v102.843H461.515a393.815 393.815 0 0 0-2.254 6.907c-.048.096-.048.24-.095.336h31.61v102.795h-56.554c-.384 2.398-.815 4.845-1.151 7.291H759.06v102.795H422.613v.432a238.376 238.376 0 0 0-.192 5.948v.911h68.354v102.795H425.73c.192 2.446.432 4.893.72 7.291h332.608v102.795H443.767c.48 2.398 1.008 4.797 1.535 7.243h45.473v102.843h-27.293c.24 2.398.431 4.845.671 7.243h294.906v102.795H455.04c-.432 1.439-.911 2.83-1.343 4.221a58.19 58.19 0 0 1-1.055 3.07h38.134v102.795H386.398a501.967 501.967 0 0 1-7.003 7.291h379.664v102.795H342.123v-67.011a938.228 938.228 0 0 1-7.291 6.668v60.343h-64.085c-2.349 2.446-4.652 4.845-6.907 7.291h226.936v102.795h-290.59a127.452 127.452 0 0 0-2.11 7.291h136.756v102.795H196.781c.144.623.24 1.247.384 1.918.384 1.535.719 3.119 1.103 4.654.048.239.096.431.144.671h292.363v102.795H241.391c1.391 2.446 2.831 4.893 4.222 7.291h89.219v102.796h-25.758c1.391 2.398 2.733 4.844 4.125 7.29h177.577v102.795H353.012c.384 2.16.767 4.366 1.103 6.572.048.24.048.48.096.719h404.847v106.441h7.243v-106.441h416.936v106.441h7.29v-106.441h416.937v106.441h7.291v-106.441h408.685c-.48-2.398-.959-4.844-1.391-7.291h-251.351V2012.91h234.082a341.778 341.778 0 0 1-.959-7.29h-389.066v-102.796h383.31c.096-2.446.192-4.845.336-7.291h-227.703v-102.795h246.123c.815-2.398 1.63-4.845 2.541-7.243h-404.607V1682.7h416.935v73.198c.048-.095.096-.143.144-.239 1.007-2.254 2.11-4.461 3.214-6.62a365.17 365.17 0 0 1 3.934-7.483V1682.7h38.998a203.584 203.584 0 0 1 5.852-7.291h-313.134v-102.795h411.276c2.446-2.398 4.845-4.845 7.291-7.291h-150.283v-102.795h237.44a232.123 232.123 0 0 0 4.605-7.291h-86.102v-102.795h132.344a211.577 211.577 0 0 0 2.158-7.291h-290.445v-102.795h309.201z"/><path fill="#26344b" d="M1374.197 478.181c6.908 13.671 7.099 29.932 4.03 44.946-5.948 29.308-24.463 55.738-49.886 71.52-12.376-3.31-20.482-12.76-24.704-24.895-4.221-12.088-3.55-25.471-.384-37.847 3.167-12.375 10.889-24.847 16.454-36.407-9.594 11.56-25.087 17.988-40.053 16.645-5.468-.432-11.032-2.015-15.157-5.612-4.941-4.317-7.339-10.985-7.723-17.508-.383-6.476 3.167-14.294 4.414-20.722-14.199 14.726-28.637 29.501-45.906 40.533-11.704 7.435-24.991 13-38.662 14.966h-.096c.528 11.992 1.871 14.726-3.836 25.327-3.982 7.291-10.506 12.759-16.981 18.084-10.554 8.778-21.155 17.652-31.851 26.526l-11.416-2.159c-11.417-2.111-17.653 15.062-17.653 15.062-2.014-2.59-3.598-5.564-4.893-8.538-1.918-4.749-2.925-9.786-3.117-14.966-.096-.143-.096-.24-.096-.24-.144-3.358 0-6.812.48-10.218 1.774-13.575 10.697-24.463 16.741-36.887-33.194.863-64.469-23.504-75.213-54.875-10.746-31.419-2.255-67.779 18.707-93.633 20.866-25.807 52.813-41.444 85.719-45.953 32.905-4.509 66.627 1.487 97.71 13.287 24.416 9.258 46.529 23.744 64.708 42.548 8.682-21.442 33.818-34.441 56.554-30.364 22.833 4.029 41.54 23.936 45.521 46.721 3.98 22.833-6.284 47.153-24.655 61.351l-.192.671c.525.863.957 1.774 1.436 2.637z"/><path fill="none" stroke="#000" stroke-linejoin="round" stroke-miterlimit="10" stroke-width="3.598" d="M150 2231.25h2158.549"/><path fill="#aa5907" d="m895.721 1576.654-73.771 44.479-92.522-678.398zM1621.716 1576.654l73.771 44.479 92.523-678.398z"/><path fill="#f38255" d="M1593.027 893.535H880.082s45.233-96.751 278.932-103.323c23.84-.672 49.647-.384 77.563 1.007 24.608-1.247 47.584-1.583 69.026-1.151 241.086 4.365 287.424 103.467 287.424 103.467z"/><path fill="#aa5907" d="m1878.445 2147.47-256.503-570.826h-726.24L639.197 2147.47z"/><path fill="#ffc578" d="m1788.216 2147.47-188.346-486.678H917.773L729.428 2147.47z"/><path fill="#f38255" d="M751.023 1101.079c-25.453 43.591-52.695 82.767-68.678 129.707-7.15 20.999-13.276 43.8-4.999 64.477 7.229 18.06 24.763 31.831 44.409 40.097 19.647 8.266 41.429 11.669 62.988 14.395M1803.605 1256.41c-7.387 37.463-34.2 72.192-70.945 82.504l21.193-141.424 29.75-60.808c14.63 43.699 27.389 82.266 20.002 119.728z"/><path fill="#be6c0d" d="m1788.216 942.717-188.346 718.075H917.773L729.428 942.717z"/><path fill="#ffc578" d="M1788.177 942.735H729.428l63.231-49.207h932.286z"/><path fill="#f9b5a2" d="M973.754 893.359c-1.123-9.109 11.793-15.828 9.924-24.814-1.057-5.08-6.723-8.032-11.911-8.063-7.661-.045-14.791 4.76-19.033 11.14-4.242 6.38-5.944 14.136-6.516 21.776"/><path fill="#be6c0d" d="m1878.456 2147.462-45.36 83.788H684.548l-45.36-83.788z"/><path fill="#f9b5a2" d="m1746.555 1246.189 5.535-40.086c-6.332 4.365-13.956 10.973-20.911 14.331-6.955 3.31-14.534 5.564-22.257 5.373-3.166-.096-6.524-.672-8.922-2.782-2.254-2.062-3.166-5.9-1.247-8.25-.767.288-1.535.528-2.35.767-6.044 1.823-13.335 2.734-18.036-1.487-3.214-2.926-4.269-7.771-3.118-11.944 1.151-4.173 6.044-7.291 9.737-9.546-4.125 1.343-8.682 2.542-12.664.911-4.989-2.015-7.483-8.106-6.38-13.383 1.055-5.229 4.989-9.546 9.594-12.28 4.557-2.686 10.121-5.564 15.254-6.955-2.686.287-5.372.287-7.963-.288-4.749-1.055-9.306-4.317-10.553-9.018-1.247-4.701 2.878-9.737 7.051-12.231 18.563-11.129 38.23-20.434 58.569-27.774 10.169-3.646 21.969-6.716 31.227-1.199 7.291 4.317 10.937 12.759 13.143 20.914 11.13 40.245-4.29 87.441-35.709 114.927zM951.608 1013.981c-.719 9.402-9.401 19.044-18.467 16.501-6.092-1.727-9.546-7.723-11.752-13.815 2.35 7.723 2.734 16.117 1.343 24.032-1.631 8.97-10.121 17.364-19.043 15.301-6.811-1.535-11.033-8.25-14.103-14.534a155.071 155.071 0 0 1-9.497-25.088c-.048 4.126-.048 8.299-1.439 12.184-1.391 3.886-4.461 7.387-8.49 8.25-5.468 1.103-10.745-3.069-13.479-7.914-3.502-6.188-4.221-13.479-4.845-20.578-.815-8.682-1.583-17.46-1.775-26.19l-.336.432c-1.439 3.55-2.926 7.195-5.42 10.073-2.494 2.927-6.284 4.989-10.073 4.509-4.077-.575-7.291-3.981-8.73-7.818-1.487-3.838-1.487-8.059-1.343-12.136.719-21.154 4.653-42.643 15.542-60.727 5.708-9.401 13.383-17.844 23.216-22.689 7.675-3.741 16.213-5.132 24.656-6.092 14.726-1.727 29.596-2.782 44.562-1.199 5.325.576 8.97 5.948 9.642 11.224.672 5.229-.863 10.505-2.111 15.686-5.708 24.224-4.029 50.127 4.845 73.391 3.355 8.825 7.816 17.747 7.097 27.197z"/><path fill="#394662" d="m654.255 1460.149-189.174 271.279v78.659h168.417v122.576h84.149v-472.514h-63.392zm-20.756 265.789H571.47l62.029-88.917v88.917zM1930.075 1460.149l-189.174 271.279v78.659h168.417v122.576h84.149v-472.514h-63.392zm-20.756 265.789h-62.029l62.029-88.917v88.917z"/><path fill="#fff" d="M1305.604 790.068v25.423c0 30.267-30.124 51.421-73.295 51.421-43.171 0-73.295-21.154-73.295-51.421v-25.279c23.84-.672 49.647-.384 77.563 1.007 24.609-1.247 47.585-1.583 69.027-1.151z"/><path fill="#f9b5a2" d="M1291.214 666.023v149.468c0 49.359-117.809 49.359-117.809 0V666.023h117.809z"/><path fill="#eb8085" d="M1291.214 745.602v39.094c-13.911 10.601-30.94 17.028-47.968 21.298-22.593 5.708-46.146 8.058-69.218 5.18-.192-.048-.431-.048-.623-.096v-58.616c24.655 8.682 51.469 11.272 77.229 7.003 14.15-2.351 28.156-6.764 40.58-13.863z"/><path fill="#f9b5a2" d="M1366.963 633.022c-.977 9.84-5.259 19.757-13.372 25.466-8.038 5.785-21.334 6.46-28.621-.226a171.687 171.687 0 0 0 3.831 3.681c-1.803 24.941-8.038 49.881-21.034 71.29-12.921 21.41-32.979 39.063-56.867 46.275-23.964 7.287-51.684 3.155-70.839-12.921-22.987-19.456-30.124-51.383-35.908-80.981-1.878-9.616-2.479-24.039-5.108-36.208-2.629 8.263-11.719 13.597-20.433 12.996-8.79-.602-16.752-6.386-21.335-13.973-4.507-7.512-6.01-16.602-5.784-25.39.226-5.559 1.127-11.193 3.305-16.377 0 0 6.235-17.202 17.654-15.099l11.418 2.179c10.668-8.865 21.26-17.729 31.852-26.518 6.46-5.333 12.996-10.818 16.977-18.105 5.709-10.591 4.357-13.297 3.831-25.315h.075c13.672-1.953 26.969-7.512 38.688-14.95 17.278-11.043 31.701-25.841 45.899-40.566-1.277 6.461-4.808 14.273-4.432 20.734.376 6.536 2.78 13.221 7.738 17.504 4.132 3.606 9.691 5.183 15.175 5.634 14.949 1.352 30.424-5.109 40.039-16.677-5.559 11.568-13.296 24.039-16.452 36.433-3.155 12.396-3.831 25.767.376 37.862 4.207 12.095 12.32 21.561 24.715 24.866 10.742-1.878 22.687-.752 29.748 7.587 7.061 8.413 9.916 19.906 8.864 30.799z"/><path fill="#fff" d="M1139.059 649.378c.144.624.24 1.247.384 1.919-.527.384-1.103.767-1.679 1.103.528-.959.96-1.966 1.295-3.022z"/><path fill="#f9b5a2" d="M1128.238 595.409c-3.898-5.414-11.271-7.482-17.596-5.797-6.325 1.684-11.531 6.651-14.635 12.588-3.103 5.937-4.283 12.771-4.491 19.515-.282 9.105 1.219 18.485 5.779 26.282 4.56 7.798 12.496 13.791 21.296 14.389 8.8.598 26.561-4.392 26.561-21.223"/><path fill="#fff" d="M1208.478 717.874c4.468 6.7 11.68 11.868 19.691 12.694 8.946.923 17.751-3.872 23.703-10.614 5.952-6.742 9.494-15.239 12.553-23.696-21.103 7.139-47.601 2.284-64.651-12.054-.448.963-.031 20.571 8.704 33.67z"/><path fill="#394662" d="M1217.847 598.318a13.203 13.203 0 0 1-13.242 13.241c-7.342 0-13.303-5.899-13.303-13.241 0-7.343 5.961-13.241 13.303-13.241a13.203 13.203 0 0 1 13.242 13.241z"/><path fill="#394662" d="M1188.013 539.291h11.831v44.232h-11.831z" transform="rotate(57.94 1193.949 561.441)"/><path fill="#394662" d="M1273.493 598.318a13.204 13.204 0 0 0 13.242 13.241c7.342 0 13.303-5.899 13.303-13.241 0-7.343-5.961-13.241-13.303-13.241a13.203 13.203 0 0 0-13.242 13.241z"/><path fill="#394662" d="M1291.496 539.291h11.831v44.232h-11.831z" transform="rotate(122.06 1297.407 561.383)"/><ellipse cx="1254.758" cy="1791.274" fill="#e48d22" rx="319.389" ry="331.125"/><ellipse cx="1254.758" cy="1791.274" fill="#ffa91f" rx="263.93" ry="273.627"/><path fill="#394662" d="M1416.469 1651.352c-13.687 0-24.794 11.516-24.794 25.705s11.107 25.705 24.794 25.705c13.687 0 24.794-11.516 24.794-25.705s-11.108-25.705-24.794-25.705zm0 40.58c-7.934 0-14.347-6.649-14.347-14.875s6.413-14.875 14.347-14.875c7.934 0 14.347 6.649 14.347 14.875s-6.414 14.875-14.347 14.875zM1221.586 1980.805c-13.687 0-24.794 11.516-24.794 25.705s11.108 25.705 24.794 25.705c13.687 0 24.794-11.516 24.794-25.705s-11.107-25.705-24.794-25.705zm0 40.581c-7.934 0-14.347-6.649-14.347-14.875s6.413-14.875 14.347-14.875c7.934 0 14.347 6.649 14.347 14.875s-6.413 14.875-14.347 14.875zM1412.228 1908.814c-13.687 0-24.794 11.516-24.794 25.705s11.107 25.705 24.794 25.705c13.687 0 24.794-11.516 24.794-25.705s-11.107-25.705-24.794-25.705zm0 40.58c-7.934 0-14.347-6.649-14.347-14.875s6.413-14.875 14.347-14.875c7.934 0 14.347 6.649 14.347 14.875s-6.414 14.875-14.347 14.875zM1273.861 1539.334c-17.34 0-31.412 14.589-31.412 32.566 0 17.976 14.072 32.566 31.412 32.566s31.412-14.589 31.412-32.566c-.001-17.976-14.072-32.566-31.412-32.566zm0 51.411c-10.051 0-18.176-8.423-18.176-18.845s8.125-18.845 18.176-18.845c10.051 0 18.176 8.424 18.176 18.845s-8.125 18.845-18.176 18.845zM1081.63 1863.775c-17.34 0-31.412 14.589-31.412 32.566 0 17.976 14.072 32.566 31.412 32.566s31.412-14.589 31.412-32.566c-.001-17.976-14.073-32.566-31.412-32.566zm0 51.411c-10.051 0-18.176-8.423-18.176-18.845s8.125-18.845 18.176-18.845c10.051 0 18.176 8.424 18.176 18.845s-8.125 18.845-18.176 18.845zM1207.239 1776.247c-13.687 0-24.794 11.516-24.794 25.705s11.107 25.705 24.794 25.705 24.794-11.516 24.794-25.705-11.107-25.705-24.794-25.705zm0 40.581c-7.934 0-14.347-6.649-14.347-14.875s6.413-14.875 14.347-14.875 14.347 6.649 14.347 14.875-6.413 14.875-14.347 14.875zM1095.54 1617.147c-13.687 0-24.794 11.516-24.794 25.705s11.107 25.705 24.794 25.705c13.687 0 24.794-11.516 24.794-25.705s-11.107-25.705-24.794-25.705zm0 40.58c-7.934 0-14.347-6.649-14.347-14.875s6.413-14.875 14.347-14.875c7.934 0 14.347 6.649 14.347 14.875s-6.413 14.875-14.347 14.875z"/><path fill="#ac9b17" d="M1206.493 1651.631c-2.912-10.203-13.305-16.08-23.147-13.06-1.338.408-2.599.898-3.779 1.551-4.331-4.571-10.945-6.612-17.163-4.653-7.479 2.286-12.519 9.469-12.44 17.305-8.74 4.326-13.463 14.774-10.708 24.814h.081c2.439 8.815 10.076 14.855 18.659 15.182 4.016 7.999 12.046 12.897 20.55 12.897 2.203 0 4.407-.327 6.533-.98 5.984-1.796 10.866-5.877 13.857-11.509 2.914-5.632 3.621-12.08 1.89-18.284-.236-.898-.552-1.714-.865-2.53 5.904-4.734 8.737-12.979 6.532-20.733zm-15.037 21.467c.709 1.143 1.338 2.53 1.811 4.081 1.101 4.081.709 8.408-1.259 12.081s-5.198 6.367-9.134 7.591c-7.794 2.285-15.904-1.877-18.659-9.632l-1.025-3.102-3.07.408c-5.984.735-11.573-3.183-13.227-9.224-1.968-6.775 1.811-13.958 8.423-15.917l3.544-1.142-.788-3.673c-1.023-4.898 1.811-9.877 6.612-11.346 4.094-1.225 8.583.653 10.708 4.571l2.52 4.653 3.7-3.755c.944-1.061 2.284-1.796 3.937-2.285 5.668-1.796 11.731 1.633 13.384 7.591 1.495 5.224-1.023 10.856-5.826 13.06l-4.252 1.959 2.601 4.081z"/><path fill="#eacf31" d="M1194.999 1671.956c4.882-3.837 7.166-10.612 5.355-16.896-2.362-8.408-10.866-13.223-18.897-10.775-1.101.326-2.126.734-3.07 1.306-3.545-3.754-8.977-5.387-14.093-3.836-6.141 1.877-10.236 7.755-10.157 14.203-5.747 2.857-9.369 8.897-9.369 15.509 0 1.551.158 3.183.629 4.734 2.047 7.265 8.267 12.162 15.276 12.407 3.306 6.612 9.842 10.611 16.848 10.611 1.811 0 3.543-.245 5.353-.816 4.882-1.469 8.898-4.816 11.337-9.387 2.362-4.653 2.914-9.958 1.497-14.938a9.52 9.52 0 0 0-.709-2.122zm-3.543 1.142c.709 1.143 1.338 2.53 1.811 4.081 1.101 4.081.709 8.408-1.259 12.081s-5.198 6.367-9.134 7.591c-7.794 2.285-15.904-1.877-18.659-9.632l-1.025-3.102-3.07.408c-5.984.735-11.573-3.183-13.227-9.224-1.968-6.775 1.811-13.958 8.423-15.917l3.544-1.142-.788-3.673c-1.023-4.898 1.811-9.877 6.612-11.346 4.094-1.225 8.583.653 10.708 4.571l2.52 4.653 3.7-3.755c.944-1.061 2.284-1.796 3.937-2.285 5.668-1.796 11.731 1.633 13.384 7.591 1.495 5.224-1.023 10.856-5.826 13.06l-4.252 1.959 2.601 4.081z"/><path fill="#ac9b17" d="M1206.493 1895.682c-2.912-10.203-13.305-16.08-23.147-13.06-1.338.408-2.599.898-3.779 1.551-4.331-4.571-10.945-6.612-17.163-4.653-7.479 2.286-12.519 9.469-12.44 17.304-8.74 4.326-13.463 14.774-10.708 24.814h.081c2.439 8.815 10.076 14.855 18.659 15.182 4.016 7.999 12.046 12.897 20.55 12.897 2.203 0 4.407-.327 6.533-.98 5.984-1.796 10.866-5.877 13.857-11.509 2.914-5.632 3.621-12.08 1.89-18.284-.236-.898-.552-1.714-.865-2.53 5.904-4.734 8.737-12.978 6.532-20.732zm-15.037 21.467c.709 1.143 1.338 2.53 1.811 4.081 1.101 4.081.709 8.408-1.259 12.081s-5.198 6.366-9.134 7.591c-7.794 2.285-15.904-1.877-18.659-9.632l-1.025-3.102-3.07.408c-5.984.735-11.573-3.184-13.227-9.224-1.968-6.775 1.811-13.958 8.423-15.917l3.544-1.142-.788-3.673c-1.023-4.898 1.811-9.877 6.612-11.346 4.094-1.225 8.583.653 10.708 4.571l2.52 4.653 3.7-3.755c.944-1.061 2.284-1.796 3.937-2.285 5.668-1.796 11.731 1.633 13.384 7.591 1.495 5.224-1.023 10.856-5.826 13.06l-4.252 1.959 2.601 4.081z"/><path fill="#eacf31" d="M1194.999 1916.007c4.882-3.837 7.166-10.612 5.355-16.896-2.362-8.408-10.866-13.223-18.897-10.775-1.101.326-2.126.734-3.07 1.306-3.545-3.755-8.977-5.387-14.093-3.836-6.141 1.877-10.236 7.755-10.157 14.203-5.747 2.857-9.369 8.897-9.369 15.509 0 1.551.158 3.183.629 4.734 2.047 7.265 8.267 12.162 15.276 12.407 3.306 6.612 9.842 10.611 16.848 10.611 1.811 0 3.543-.245 5.353-.816 4.882-1.469 8.898-4.816 11.337-9.387 2.362-4.653 2.914-9.958 1.497-14.938a9.504 9.504 0 0 0-.709-2.122zm-3.543 1.142c.709 1.143 1.338 2.53 1.811 4.081 1.101 4.081.709 8.408-1.259 12.081s-5.198 6.366-9.134 7.591c-7.794 2.285-15.904-1.877-18.659-9.632l-1.025-3.102-3.07.408c-5.984.735-11.573-3.184-13.227-9.224-1.968-6.775 1.811-13.958 8.423-15.917l3.544-1.142-.788-3.673c-1.023-4.898 1.811-9.877 6.612-11.346 4.094-1.225 8.583.653 10.708 4.571l2.52 4.653 3.7-3.755c.944-1.061 2.284-1.796 3.937-2.285 5.668-1.796 11.731 1.633 13.384 7.591 1.495 5.224-1.023 10.856-5.826 13.06l-4.252 1.959 2.601 4.081z"/><path fill="#ac9b17" d="M1463.645 1790.778c-4.086-14.316-18.668-22.562-32.477-18.324-1.877.573-3.646 1.26-5.302 2.176-6.076-6.413-15.357-9.277-24.081-6.528-10.494 3.207-17.565 13.286-17.455 24.28-12.263 6.07-18.89 20.729-15.025 34.817h.113c3.422 12.368 14.138 20.843 26.18 21.302 5.634 11.223 16.902 18.095 28.833 18.095 3.091 0 6.184-.458 9.167-1.375 8.396-2.519 15.246-8.246 19.442-16.148 4.089-7.902 5.081-16.95 2.651-25.654-.332-1.26-.774-2.405-1.214-3.55 8.286-6.643 12.261-18.211 9.168-29.091zm-21.099 30.121c.995 1.604 1.877 3.55 2.541 5.726 1.545 5.726.995 11.797-1.766 16.95-2.762 5.154-7.293 8.933-12.816 10.651-10.936 3.206-22.315-2.634-26.179-13.514l-1.438-4.352-4.307.573c-8.396 1.031-16.238-4.467-18.558-12.942-2.762-9.506 2.541-19.584 11.818-22.333l4.973-1.603-1.106-5.154c-1.435-6.872 2.541-13.858 9.278-15.919 5.745-1.718 12.042.917 15.025 6.414l3.536 6.528 5.192-5.268c1.324-1.489 3.204-2.519 5.523-3.206 7.953-2.52 16.46 2.291 18.779 10.651 2.098 7.33-1.435 15.232-8.174 18.324l-5.966 2.749 3.645 5.725z"/><path fill="#eacf31" d="M1447.517 1819.296c6.85-5.383 10.054-14.889 7.514-23.707-3.315-11.797-15.246-18.553-26.514-15.118-1.545.458-2.983 1.03-4.307 1.832-4.973-5.268-12.595-7.558-19.774-5.382-8.617 2.634-14.361 10.88-14.251 19.928-8.064 4.008-13.145 12.484-13.145 21.76 0 2.176.221 4.466.882 6.642 2.872 10.193 11.6 17.064 21.433 17.408 4.639 9.277 13.808 14.888 23.639 14.888 2.541 0 4.97-.343 7.511-1.145 6.85-2.061 12.484-6.757 15.907-13.171 3.315-6.528 4.089-13.972 2.101-20.959-.222-1.029-.554-2.06-.996-2.976zm-4.971 1.603c.995 1.604 1.877 3.55 2.541 5.726 1.545 5.726.995 11.797-1.766 16.95-2.762 5.154-7.293 8.933-12.816 10.651-10.936 3.206-22.315-2.634-26.179-13.514l-1.438-4.352-4.307.573c-8.396 1.031-16.238-4.467-18.558-12.942-2.762-9.506 2.541-19.584 11.818-22.333l4.973-1.603-1.106-5.154c-1.435-6.872 2.541-13.858 9.278-15.919 5.745-1.718 12.042.917 15.025 6.414l3.536 6.528 5.192-5.268c1.324-1.489 3.204-2.519 5.523-3.206 7.953-2.52 16.46 2.291 18.779 10.651 2.098 7.33-1.435 15.232-8.174 18.324l-5.966 2.749 3.645 5.725z"/><path fill="#ff614a" d="M1367.386 1718.752c0 39.972-31.286 72.521-69.952 72.521s-69.952-32.549-69.952-72.521c0-40.087 31.286-72.635 69.952-72.635s69.952 32.549 69.952 72.635z"/><path fill="#ff9079" d="M1297.371 1676.304c0 5.485-4.293 9.951-9.599 9.951s-9.599-4.466-9.599-9.951c0-5.501 4.293-9.967 9.599-9.967s9.599 4.466 9.599 9.967zM1333.164 1753.874c0 5.485-4.293 9.952-9.599 9.952s-9.599-4.466-9.599-9.952c0-5.501 4.293-9.967 9.599-9.967s9.599 4.466 9.599 9.967zM1299.998 1731.666c0 3.981-3.116 7.223-6.967 7.223-3.851 0-6.967-3.242-6.967-7.223 0-3.993 3.116-7.234 6.967-7.234 3.851 0 6.967 3.241 6.967 7.234zM1270.836 1763.831c0 3.981-3.116 7.223-6.967 7.223-3.851 0-6.967-3.242-6.967-7.223 0-3.993 3.116-7.234 6.967-7.234 3.851 0 6.967 3.241 6.967 7.234zM1275.203 1717.259c0 7.938-6.213 14.401-13.891 14.401s-13.891-6.464-13.891-14.401c0-7.96 6.213-14.424 13.891-14.424s13.891 6.464 13.891 14.424zM1347.448 1712.694c0 10.454-8.182 18.966-18.294 18.966s-18.294-8.512-18.294-18.966c0-10.484 8.182-18.996 18.294-18.996s18.294 8.513 18.294 18.996z"/><path fill="#ff614a" d="M1124.612 1751.962c0 30.395-23.79 55.145-53.191 55.145-29.401 0-53.191-24.75-53.191-55.145 0-30.482 23.79-55.231 53.191-55.231 29.401 0 53.191 24.75 53.191 55.231z"/><path fill="#ff9079" d="M1071.373 1719.685c0 4.171-3.264 7.567-7.299 7.567-4.034 0-7.299-3.396-7.299-7.567 0-4.183 3.265-7.579 7.299-7.579 4.034 0 7.299 3.396 7.299 7.579zM1098.59 1778.669c0 4.171-3.265 7.567-7.299 7.567-4.035 0-7.299-3.396-7.299-7.567 0-4.183 3.264-7.579 7.299-7.579 4.034 0 7.299 3.396 7.299 7.579zM1073.371 1761.782c0 3.027-2.369 5.492-5.298 5.492s-5.298-2.465-5.298-5.492c0-3.036 2.369-5.501 5.298-5.501s5.298 2.465 5.298 5.501zM1051.195 1786.24c0 3.027-2.369 5.492-5.298 5.492-2.928 0-5.298-2.465-5.298-5.492 0-3.036 2.369-5.501 5.298-5.501s5.298 2.465 5.298 5.501zM1054.516 1750.827c0 6.036-4.724 10.951-10.563 10.951s-10.563-4.915-10.563-10.951c0-6.053 4.724-10.968 10.563-10.968s10.563 4.915 10.563 10.968zM1109.451 1747.356c0 7.949-6.222 14.422-13.911 14.422-7.689 0-13.911-6.473-13.911-14.422 0-7.972 6.222-14.444 13.911-14.444 7.689 0 13.911 6.472 13.911 14.444z"/><path fill="#ff614a" d="M1352.575 1915.392c0 30.395-23.79 55.145-53.191 55.145s-53.191-24.75-53.191-55.145c0-30.482 23.79-55.231 53.191-55.231s53.191 24.749 53.191 55.231z"/><path fill="#ff9079" d="M1299.336 1883.114c0 4.171-3.264 7.567-7.299 7.567-4.034 0-7.299-3.396-7.299-7.567 0-4.183 3.265-7.579 7.299-7.579 4.034 0 7.299 3.396 7.299 7.579zM1326.553 1942.098c0 4.171-3.265 7.567-7.299 7.567-4.035 0-7.299-3.396-7.299-7.567 0-4.183 3.264-7.579 7.299-7.579 4.034 0 7.299 3.396 7.299 7.579zM1301.334 1925.211c0 3.027-2.369 5.492-5.298 5.492s-5.298-2.465-5.298-5.492c0-3.036 2.369-5.501 5.298-5.501s5.298 2.465 5.298 5.501zM1279.158 1949.669c0 3.027-2.369 5.492-5.298 5.492-2.928 0-5.298-2.465-5.298-5.492 0-3.036 2.369-5.501 5.298-5.501s5.298 2.465 5.298 5.501zM1282.479 1914.256c0 6.036-4.724 10.951-10.563 10.951s-10.563-4.915-10.563-10.951c0-6.053 4.724-10.968 10.563-10.968s10.563 4.915 10.563 10.968zM1337.414 1910.785c0 7.949-6.222 14.422-13.911 14.422-7.689 0-13.911-6.473-13.911-14.422 0-7.972 6.222-14.444 13.911-14.444 7.689 0 13.911 6.472 13.911 14.444z"/><path fill="#394662" d="M1242.546 670.127c-2.619 0-5.289-.927-7.373-2.661-2.74-2.286-4.422-5.771-4.619-9.561l4.787-.253c.126 2.426 1.213 4.717 2.904 6.127 1.729 1.443 4.132 1.935 6.08 1.269 2.075-.707 3.841-2.731 4.731-5.415.904-2.731.895-5.813.81-8.741a159.916 159.916 0 0 0-4.478-33.264l4.656-1.134a164.346 164.346 0 0 1 4.619 34.257c.098 3.354.094 6.919-1.054 10.39-1.358 4.099-4.249 7.261-7.739 8.451a10.295 10.295 0 0 1-3.324.535z"/><path fill="none" stroke="#000" stroke-miterlimit="10" stroke-width="2.398" d="m849.595 984.837.526-34.294M880.029 1019.114l-10.364-53.775M923.106 1020.816a197.468 197.468 0 0 1-18.449-71.098M1689.259 1161.562a107.822 107.822 0 0 1 41.867-12.694M1683.012 1193.755a171.624 171.624 0 0 1 53.656-20.644M1698.335 1215.341a236.86 236.86 0 0 1 42.567-17.556"/><path fill="#eb8085" d="M1115.965 604.041c-4.994-.861-8.833 2.442-10.988 6.015-2.124 3.639-2.583 8.179-2.137 12.595.395 4.446 1.672 9.009 3.256 13.321 1.705 4.246 3.844 8.427 8.02 11.123-5.066-.798-8.985-5.17-11.397-9.51-2.48-4.457-4.083-9.29-4.65-14.484-.425-5.12.323-10.845 3.865-15.198 1.693-2.116 3.947-3.788 6.503-4.639 2.53-.875 5.48-.648 7.528.777zM1336.771 604.041c4.994-.861 8.834 2.442 10.988 6.015 2.124 3.639 2.583 8.179 2.137 12.595-.395 4.446-1.672 9.009-3.256 13.321-1.705 4.246-3.844 8.427-8.02 11.123 5.066-.798 8.985-5.17 11.397-9.51 2.48-4.457 4.082-9.29 4.65-14.484.425-5.12-.323-10.845-3.865-15.198-1.693-2.116-3.947-3.788-6.503-4.639-2.53-.875-5.48-.648-7.528.777z"/><path fill="#fff" d="M1591.54 1370.748c-2.08.13-3.864.337-5.649.339-11.334.014-22.671-.197-33.999.059-4.118.093-5.424-1.432-5.882-5.299-1.644-13.891-3.73-27.73-5.342-41.625-.475-4.098-1.787-5.705-6.167-5.509-8.484.381-17.012.453-25.49.018-4.687-.241-5.995 1.73-6.492 5.798-1.697 13.889-3.693 27.741-5.338 41.635-.433 3.657-1.621 5.104-5.558 5.014-11.327-.261-22.665-.065-33.999-.076-1.797-.002-3.594-.146-6.021-.253 1.545-9.065 2.969-17.697 4.494-26.312 7.169-40.513 14.361-81.022 21.556-121.531 5.359-30.173 10.79-60.334 16.028-90.528.564-3.25 1.629-4.522 5.051-4.489 15.333.149 30.67.172 46.001-.038 3.695-.051 4.341 1.73 4.862 4.703 7.303 41.668 14.693 83.321 22.068 124.977 6.416 36.246 12.841 72.49 19.253 108.737.231 1.288.373 2.591.624 4.38zm-69.054-165.086-1.695.023-10.666 70.688h22.986l-10.625-70.711zM926.187 1128.02c11.205 0 21.511-.209 31.805.048 16.299.407 32.78-.231 48.846 2.003 30.83 4.287 46.824 21.255 51.204 51.99 2.224 15.607 1.983 31.224-1.557 46.704-5.494 24.028-20.512 38.529-44.5 42.926-11.053 2.026-22.489 2.215-33.773 2.596-4.631.156-6.332 1.038-6.289 6.046.24 28.491.052 56.986.224 85.479.025 4.147-1.157 5.464-5.343 5.375-11.825-.251-23.661-.192-35.489-.008-3.75.058-5.217-.884-5.211-4.987.114-77.15.084-154.299.084-231.449l-.001-6.723zm45.841 73.137c0 9.496.002 18.992-.002 28.487-.001 2.232-.133 4.609 3.135 4.466 7.143-.312 14.364-.152 21.404-1.193 8.116-1.2 13.477-6.197 15.225-14.508 2.363-11.229 2.372-22.495.095-33.717-1.801-8.879-7.48-14.068-16.374-15.128-6.253-.745-12.617-.516-18.916-.938-3.487-.234-4.696 1.049-4.63 4.544.177 9.327.061 18.658.063 27.987zM1291.177 1370.819h-118.119c-.147-1.703-.368-3.146-.379-4.591-.042-5.333.466-10.719-.104-15.991-1.654-15.304 2.792-28.917 9.134-42.685 20.215-43.879 39.653-88.116 59.378-132.221.529-1.183.908-2.434 1.627-4.389-2.157-.141-3.864-.347-5.571-.35-16.835-.036-33.671-.14-50.504.026-3.852.038-5.265-1.004-5.177-5.033.244-11.162.158-22.334.053-33.5-.028-2.968.921-4.088 4.017-4.08 34.337.088 68.674.059 103.011.079.794 0 1.588.208 2.971.401 0 11.124-.222 22.085.082 33.032.185 6.671-1.289 12.664-4.005 18.753-20.9 46.864-41.574 93.829-62.305 140.769-.995 2.252-1.871 4.557-3.151 7.692h69.042v42.088zM1387.672 1170.572h-60.873v-42.237c1.756-.104 3.219-.267 4.682-.268 33.174-.015 66.349.061 99.522-.102 4.221-.021 5.408 1.307 5.326 5.386-.232 11.498-.009 23.004-.167 34.505-.031 2.248-.63 4.633-1.541 6.703-20.326 46.213-40.739 92.388-61.116 138.578-2.189 4.961-4.264 9.972-6.734 15.761h69.154v41.714c-1.516.174-2.939.479-4.362.48-35.84.022-71.68.027-107.52-.007-6.501-.006-6.524-.091-6.591-6.541-.04-3.834.442-7.725-.057-11.492-2.43-18.353 3.894-34.431 11.413-50.696 19.367-41.892 37.932-84.154 56.801-126.276.661-1.476 1.142-3.031 2.063-5.508zM1090.439 1128.036c14.897 0 28.873.032 42.849-.023 3.466-.014 2.996 2.394 3.002 4.499.04 15.329.06 30.658.06 45.987.002 62.483-.033 124.966.061 187.449.006 3.806-.911 5.278-4.996 5.197-11.825-.233-23.662-.234-35.485.064-4.441.112-5.586-1.319-5.576-5.671.128-59.817.075-119.634.071-179.451-.001-17.329.01-34.657.015-51.986l-.001-6.065z"/></svg>